<?xml version="1.0" standalone="no"?>
<!DOCTYPE svg PUBLIC "-//W3C//DTD SVG 20010904//EN"
 "http://www.w3.org/TR/2001/REC-SVG-20010904/DTD/svg10.dtd">
<svg version="1.0" xmlns="http://www.w3.org/2000/svg"
 width="200.000000pt" height="200.000000pt" viewBox="0 0 200.000000 200.000000"
 preserveAspectRatio="xMidYMid meet">

<g transform="translate(0.000000,200.000000) scale(0.100000,-0.100000)"
fill="#000000" stroke="none">
<path d="M931 1376 c-15 -18 2 -56 23 -56 21 0 38 27 31 50 -7 23 -37 27 -54
6z"/>
<path d="M1502 1274 c-12 -8 -22 -10 -22 -5 0 6 -9 11 -20 11 -19 0 -20 -7
-20 -145 l0 -145 25 0 25 0 0 103 c0 56 3 112 6 125 9 30 34 28 34 -3 0 -18 5
-25 20 -25 17 0 20 7 20 40 0 29 -5 42 -19 50 -25 13 -22 13 -49 -6z"/>
<path d="M930 1135 l0 -145 25 0 25 0 0 145 0 145 -25 0 -25 0 0 -145z"/>
<path d="M1046 1258 c-20 -28 -22 -181 -3 -218 11 -21 20 -25 55 -24 39 1 42
-1 42 -26 0 -15 -7 -33 -15 -40 -12 -10 -15 -10 -15 3 0 22 -17 30 -46 23 -48
-13 -15 -76 40 -76 73 0 86 36 86 231 0 137 -1 149 -18 149 -10 0 -23 -5 -29
-11 -8 -8 -13 -8 -17 0 -13 20 -64 12 -80 -11z m84 -27 c11 -21 14 -139 4
-165 -3 -9 -14 -16 -24 -16 -24 0 -30 19 -30 96 0 64 12 104 30 104 5 0 14 -9
20 -19z"/>
<path d="M1259 1263 c-9 -10 -15 -51 -17 -119 -4 -99 -3 -104 22 -129 30 -29
65 -32 96 -7 40 33 49 193 14 250 -11 17 -24 22 -58 22 -28 0 -48 -6 -57 -17z
m81 -130 c0 -77 -3 -95 -16 -100 -26 -10 -34 16 -34 108 0 89 11 119 37 98 9
-8 13 -40 13 -106z"/>
<path d="M190 1000 l0 -30 335 0 335 0 0 30 0 30 -335 0 -335 0 0 -30z"/>
<path d="M940 770 l0 -190 25 0 25 0 0 190 0 190 -25 0 -25 0 0 -190z"/>
<path d="M1508 868 c-26 -9 -49 -51 -41 -75 8 -22 41 -15 45 10 2 14 11 23 26
25 19 3 22 -1 22 -32 0 -29 -5 -38 -30 -51 -16 -8 -39 -25 -50 -37 -26 -28
-27 -89 -2 -111 22 -20 63 -22 80 -5 9 9 12 9 12 -1 0 -7 9 -11 23 -9 21 3 22
6 22 130 0 137 -5 150 -55 161 -14 3 -37 1 -52 -5z m43 -241 c-7 -7 -15 -6
-26 3 -20 16 -12 59 13 78 15 12 17 9 20 -29 2 -23 -1 -46 -7 -52z"/>
<path d="M1050 725 l0 -145 25 0 25 0 0 145 0 145 -25 0 -25 0 0 -145z"/>
<path d="M1160 725 l0 -145 25 0 24 0 3 123 c3 118 4 122 26 125 22 3 22 2 22
-123 l0 -126 28 3 27 3 3 120 c3 120 11 146 39 123 9 -7 13 -45 13 -129 l0
-119 25 0 25 0 0 126 c0 69 -5 134 -10 145 -12 22 -68 27 -88 7 -9 -9 -15 -9
-24 0 -16 16 -60 15 -77 0 -11 -10 -14 -10 -18 0 -3 6 -13 12 -24 12 -18 0
-19 -9 -19 -145z"/>
</g>
</svg>
